<?xml version="1.0" standalone="no"?>
<!DOCTYPE svg PUBLIC "-//W3C//DTD SVG 20010904//EN"
 "http://www.w3.org/TR/2001/REC-SVG-20010904/DTD/svg10.dtd">
<svg version="1.0" xmlns="http://www.w3.org/2000/svg"
 width="300.000000pt" height="300.000000pt" viewBox="0 0 300.000000 300.000000"
 preserveAspectRatio="xMidYMid meet">
<metadata>
Created by potrace 1.10, written by Peter Selinger 2001-2011
</metadata>
<g transform="translate(0.000000,300.000000) scale(0.100000,-0.100000)"
fill="#000000" stroke="none">
<path d="M1470 1794 c-152 -19 -249 -53 -421 -146 l-114 -62 -120 -7 c-136 -7
-185 -18 -269 -61 -60 -30 -140 -88 -132 -95 2 -3 27 12 55 32 107 77 242 105
387 79 48 -8 96 -12 107 -8 11 3 50 25 86 49 215 139 442 206 641 190 107 -8
244 -37 385 -82 149 -47 145 -45 105 -54 -50 -12 -128 4 -259 51 -151 54 -174
47 -33 -10 62 -25 112 -48 112 -52 0 -5 -42 -8 -92 -8 -51 0 -169 -7 -263 -15
-93 -8 -206 -18 -250 -21 -110 -9 -131 -24 -25 -19 47 3 175 7 286 9 110 3
208 8 217 12 29 11 18 -10 -17 -33 -18 -12 -62 -59 -97 -104 -108 -140 -181
-168 -444 -170 -82 0 -161 -4 -174 -8 -35 -9 240 -36 361 -35 88 1 103 4 163
33 57 28 77 46 135 120 75 94 109 121 197 156 121 48 415 77 471 46 13 -7 26
-10 29 -7 3 3 -6 10 -21 15 -40 16 -32 21 34 21 l60 0 -15 -23 c-18 -29 -21
-74 -10 -187 8 -93 -4 -138 -44 -160 -32 -17 -36 -12 -33 36 12 143 -123 256
-267 224 -47 -10 -64 -21 -107 -64 -34 -35 -54 -66 -61 -94 -6 -23 -7 -40 -3
-37 4 3 11 17 15 32 19 78 117 153 199 153 85 -1 178 -71 192 -146 4 -20 4
-63 0 -95 -5 -55 -4 -59 15 -59 32 0 76 27 106 67 31 40 35 91 18 226 -7 62
-6 71 14 98 33 44 22 61 -31 52 -24 -5 -90 -8 -148 -7 -98 1 -115 4 -260 52
-178 58 -254 78 -360 97 -84 15 -266 25 -320 19z"/>
<path d="M609 1467 c-24 -13 -56 -41 -71 -63 -27 -38 -53 -124 -38 -124 4 0
10 18 14 41 15 92 129 161 227 137 54 -14 136 -91 145 -136 7 -36 24 -53 24
-25 0 68 -56 154 -117 179 -51 22 -133 18 -184 -9z"/>
</g>
</svg>
